<svg width="186" height="173" viewBox="0 0 186 173" fill="none" xmlns="http://www.w3.org/2000/svg">
<path d="M175.973 1L103.893 54.4755L117.28 22.9262L175.973 1Z" fill="#E17726" stroke="#E17726" stroke-width="0.712817" stroke-linecap="round" stroke-linejoin="round"/>
<path d="M9.7439 1L81.1681 54.9816L68.4372 22.9262L9.7439 1Z" fill="#E27625" stroke="#E27625" stroke-width="0.712817" stroke-linecap="round" stroke-linejoin="round"/>
<path d="M150.062 124.966L130.887 154.348L171.917 165.632L183.643 125.615L150.062 124.966Z" fill="#E27625" stroke="#E27625" stroke-width="0.712817" stroke-linecap="round" stroke-linejoin="round"/>
<path d="M2.14526 125.615L13.7998 165.632L54.8295 154.348L35.7261 124.966L2.14526 125.615Z" fill="#E27625" stroke="#E27625" stroke-width="0.712817" stroke-linecap="round" stroke-linejoin="round"/>
<path d="M52.5842 75.3183L41.1506 92.6183L81.824 94.4289L80.4482 50.6406L52.5842 75.3183Z" fill="#E27625" stroke="#E27625" stroke-width="0.712817" stroke-linecap="round" stroke-linejoin="round"/>
<path d="M133.133 75.3183L104.834 50.1345L103.893 94.4289L144.566 92.6183L133.133 75.3183Z" fill="#E27625" stroke="#E27625" stroke-width="0.712817" stroke-linecap="round" stroke-linejoin="round"/>
<path d="M54.8296 154.348L79.3648 142.401L58.2297 125.907L54.8296 154.348Z" fill="#E27625" stroke="#E27625" stroke-width="0.712817" stroke-linecap="round" stroke-linejoin="round"/>
<path d="M106.352 142.401L130.887 154.348L127.487 125.907L106.352 142.401Z" fill="#E27625" stroke="#E27625" stroke-width="0.712817" stroke-linecap="round" stroke-linejoin="round"/>
<path d="M130.887 154.348L106.352 142.401L108.305 158.397L108.091 165.126L130.887 154.348Z" fill="#D5BFB2" stroke="#D5BFB2" stroke-width="0.712817" stroke-linecap="round" stroke-linejoin="round"/>
<path d="M54.8296 154.348L77.6255 165.126L77.4829 158.397L79.3648 142.401L54.8296 154.348Z" fill="#D5BFB2" stroke="#D5BFB2" stroke-width="0.712817" stroke-linecap="round" stroke-linejoin="round"/>
<path d="M78.0603 115.336L57.6523 109.334L72.0512 102.747L78.0603 115.336Z" fill="#233447" stroke="#233447" stroke-width="0.712817" stroke-linecap="round" stroke-linejoin="round"/>
<path d="M107.656 115.336L113.666 102.747L128.136 109.334L107.656 115.336Z" fill="#233447" stroke="#233447" stroke-width="0.712817" stroke-linecap="round" stroke-linejoin="round"/>
<path d="M54.8296 154.348L58.3723 124.966L35.7261 125.615L54.8296 154.348Z" fill="#CC6228" stroke="#CC6228" stroke-width="0.712817" stroke-linecap="round" stroke-linejoin="round"/>
<path d="M127.344 124.966L130.887 154.348L150.062 125.615L127.344 124.966Z" fill="#CC6228" stroke="#CC6228" stroke-width="0.712817" stroke-linecap="round" stroke-linejoin="round"/>
<path d="M144.566 92.6183L103.893 94.4289L107.656 115.336L113.666 102.747L128.136 109.334L144.566 92.6183Z" fill="#CC6228" stroke="#CC6228" stroke-width="0.712817" stroke-linecap="round" stroke-linejoin="round"/>
<path d="M57.6524 109.334L72.0512 102.747L78.0603 115.336L81.824 94.4289L41.1506 92.6183L57.6524 109.334Z" fill="#CC6228" stroke="#CC6228" stroke-width="0.712817" stroke-linecap="round" stroke-linejoin="round"/>
<path d="M41.1506 92.6183L58.2297 125.907L57.6524 109.334L41.1506 92.6183Z" fill="#E27525" stroke="#E27525" stroke-width="0.712817" stroke-linecap="round" stroke-linejoin="round"/>
<path d="M128.136 109.334L127.487 125.907L144.566 92.6183L128.136 109.334Z" fill="#E27525" stroke="#E27525" stroke-width="0.712817" stroke-linecap="round" stroke-linejoin="round"/>
<path d="M81.824 94.4289L78.0603 115.336L82.8362 140.014L83.8484 107.523L81.824 94.4289Z" fill="#E27525" stroke="#E27525" stroke-width="0.712817" stroke-linecap="round" stroke-linejoin="round"/>
<path d="M103.893 94.4289L101.94 107.452L102.881 140.014L107.656 115.336L103.893 94.4289Z" fill="#E27525" stroke="#E27525" stroke-width="0.712817" stroke-linecap="round" stroke-linejoin="round"/>
<path d="M107.656 115.336L102.881 140.014L106.352 142.401L127.487 125.907L128.136 109.334L107.656 115.336Z" fill="#F5841F" stroke="#F5841F" stroke-width="0.712817" stroke-linecap="round" stroke-linejoin="round"/>
<path d="M57.6523 109.334L58.2297 125.907L79.3647 142.401L82.8362 140.014L78.0603 115.336L57.6523 109.334Z" fill="#F5841F" stroke="#F5841F" stroke-width="0.712817" stroke-linecap="round" stroke-linejoin="round"/>
<path d="M108.091 165.126L108.305 158.397L106.502 156.807H79.2151L77.4829 158.397L77.6255 165.126L54.8296 154.348L62.7918 160.856L79.0012 172.076H106.716L122.925 160.856L130.887 154.348L108.091 165.126Z" fill="#C0AC9D" stroke="#C0AC9D" stroke-width="0.712817" stroke-linecap="round" stroke-linejoin="round"/>
<path d="M106.352 142.401L102.881 140.014H82.8362L79.3648 142.401L77.4829 158.397L79.2151 156.808H106.502L108.305 158.397L106.352 142.401Z" fill="#161616" stroke="#161616" stroke-width="0.712817" stroke-linecap="round" stroke-linejoin="round"/>
<path d="M179.009 57.9541L185.09 28.4292L175.973 1L106.352 52.6721L133.133 75.3183L170.976 86.3955L179.302 76.6227L175.681 74.021L181.469 68.7318L177.056 65.2604L182.844 60.8481L179.009 57.9541Z" fill="#763E1A" stroke="#763E1A" stroke-width="0.712817" stroke-linecap="round" stroke-linejoin="round"/>
<path d="M0.626953 28.4292L6.77857 57.9541L2.87233 60.8481L8.6604 65.2604L4.24806 68.7318L10.0361 74.021L6.41503 76.6227L14.7407 86.3955L52.5842 75.3183L79.3647 52.6721L9.74389 1L0.626953 28.4292Z" fill="#763E1A" stroke="#763E1A" stroke-width="0.712817" stroke-linecap="round" stroke-linejoin="round"/>
<path d="M170.976 86.3955L133.133 75.3183L144.566 92.6183L127.487 125.907L150.062 125.615H183.643L170.976 86.3955Z" fill="#F5841F" stroke="#F5841F" stroke-width="0.712817" stroke-linecap="round" stroke-linejoin="round"/>
<path d="M52.5842 75.3183L14.7407 86.3955L2.14526 125.615H35.7261L58.2297 125.907L41.1506 92.6183L52.5842 75.3183Z" fill="#F5841F" stroke="#F5841F" stroke-width="0.712817" stroke-linecap="round" stroke-linejoin="round"/>
<path d="M103.893 94.4289L106.352 52.6721L117.279 22.9263H68.4373L79.3647 52.6721L81.824 94.4289L82.7649 107.595L82.8361 140.014H102.881L102.952 107.595L103.893 94.4289Z" fill="#F5841F" stroke="#F5841F" stroke-width="0.712817" stroke-linecap="round" stroke-linejoin="round"/>
</svg>
